<?xml version="1.0" standalone="no"?>
<!DOCTYPE svg PUBLIC "-//W3C//DTD SVG 20010904//EN"
 "http://www.w3.org/TR/2001/REC-SVG-20010904/DTD/svg10.dtd">
<svg version="1.0" xmlns="http://www.w3.org/2000/svg"
 width="76.000000pt" height="98.000000pt" viewBox="0 0 76.000000 98.000000"
 preserveAspectRatio="xMidYMid meet">

<g transform="translate(0.000000,98.000000) scale(0.100000,-0.100000)"
fill="#000000" stroke="none">
<path d="M422 683 l3 -98 142 -75 c79 -41 142 -79 140 -83 -1 -5 -99 -59 -217
-120 l-215 -112 -3 -77 c-2 -43 1 -78 5 -77 4 0 105 51 223 113 l215 114 3
180 2 180 -144 76 c-80 42 -147 76 -151 76 -3 0 -4 -44 -3 -97z"/>
</g>
</svg>
